<?xml version="1.0" encoding="UTF-8"?>
<svg version="1.1" xmlns="http://www.w3.org/2000/svg" width="225" height="225" viewBox="0 0 225 225">
<!-- make background transparent so logo is visible on white map -->
<path d="M0 0 C74.25 0 148.5 0 225 0 C225 74.25 225 148.5 225 225 C150.75 225 76.5 225 0 225 C0 150.75 0 76.5 0 0 Z " fill="none" transform="translate(0,0)"/>
<path d="M0 0 C1.67334039 0.98879205 3.34151823 1.98648336 5 3 C7.7004039 2.35336433 7.7004039 2.35336433 10 1 C13.20422044 -0.60211022 16.51558502 -0.35104181 20 0 C24.10599024 1.42130431 26.81737676 3.19313974 29.18847656 6.89111328 C31.05962793 11.75362997 30.39435632 17.25035064 30.25 22.375 C30.23195312 23.58800781 30.21390625 24.80101563 30.1953125 26.05078125 C30.14832216 29.0346679 30.08263372 32.01692279 30 35 C27.69 35 25.38 35 23 35 C22.970271 33.97845825 22.970271 33.97845825 22.93994141 32.9362793 C22.84473017 29.85296083 22.73503534 26.77032351 22.625 23.6875 C22.5940625 22.61564453 22.563125 21.54378906 22.53125 20.43945312 C22.47324219 18.89741211 22.47324219 18.89741211 22.4140625 17.32421875 C22.3826416 16.37635498 22.3512207 15.42849121 22.31884766 14.4519043 C22.1510949 11.7469731 22.1510949 11.7469731 20 9 C16.5 8.58333333 16.5 8.58333333 13 9 C10.39911378 11.60088622 10.70037775 12.82137113 10.5859375 16.4453125 C10.54726562 17.52167969 10.50859375 18.59804687 10.46875 19.70703125 C10.4378125 20.83496094 10.406875 21.96289062 10.375 23.125 C10.33632812 24.26066406 10.29765625 25.39632812 10.2578125 26.56640625 C10.16332399 29.37743956 10.07776459 32.18846233 10 35 C7.36 35 4.72 35 2 35 C1.505 22.13 1.505 22.13 1 9 C-2.3 9 -5.6 9 -9 9 C-9.33 17.58 -9.66 26.16 -10 35 C-12.64 35 -15.28 35 -18 35 C-18.11662261 30.95857785 -18.1873935 26.91759135 -18.25 22.875 C-18.28351563 21.73289062 -18.31703125 20.59078125 -18.3515625 19.4140625 C-18.44902663 11.03214703 -17.44583908 7.74119672 -11.8125 1.625 C-7.87085783 -0.65239325 -4.45627229 -0.72373765 0 0 Z " fill="#1418C8" transform="translate(118,103)"/>
<path d="M0 0 C4.69442957 2.02978193 7.23697725 4.80404625 9.92578125 9.09375 C10.73828125 11.38671875 10.73828125 11.38671875 10.73828125 18.38671875 C1.82828125 18.38671875 -7.08171875 18.38671875 -16.26171875 18.38671875 C-13.92323733 24.30402893 -13.92323733 24.30402893 -10.26171875 26.38671875 C-5.4834504 26.94976535 -5.4834504 26.94976535 -1.38671875 24.88671875 C2.01152292 22.48795993 5.70465422 23.1540095 9.73828125 23.38671875 C7.29043334 27.79284498 4.92607136 31.2041295 0.42578125 33.63671875 C-5.85009997 35.38812746 -11.63494646 34.5547334 -17.26171875 31.38671875 C-21.97361551 27.24596099 -23.9960144 22.70214238 -24.69921875 16.57421875 C-24.56803713 11.61742738 -22.33610014 8.15450681 -19.26171875 4.38671875 C-13.36618696 -0.96039148 -7.77637645 -2.10862021 0 0 Z " fill="#1317C8" transform="translate(66.26171875,103.61328125)"/>
<path d="M0 0 C2.64 0 5.28 0 8 0 C8 5.94 8 11.88 8 18 C14.6 18 21.2 18 28 18 C28 12.06 28 6.12 28 0 C30.31 0 32.62 0 35 0 C35 14.19 35 28.38 35 43 C32.69 43 30.38 43 28 43 C28 37.06 28 31.12 28 25 C21.4 25 14.8 25 8 25 C8 30.94 8 36.88 8 43 C5.36 43 2.72 43 0 43 C0 28.81 0 14.62 0 0 Z " fill="#1115C8" transform="translate(0,95)"/>
<path d="M0 0 C4.84416675 5.09258556 5 7.73339767 5 15 C-3.91 15 -12.82 15 -22 15 C-21.01 16.65 -20.02 18.3 -19 20 C-19 20.66 -19 21.32 -19 22 C-15.43528609 23.18823797 -12.7441664 23.26274852 -9 23 C-8.38125 22.505 -7.7625 22.01 -7.125 21.5 C-3.72675833 19.10124118 -0.03362703 19.76729075 4 20 C1.55215209 24.40612623 -0.81220989 27.81741075 -5.3125 30.25 C-11.59114248 32.0021793 -16.31408096 31.05354911 -22 28 C-26.06385768 24.47799001 -28.68813045 21.60374807 -29.3359375 16.1953125 C-29.41525118 9.96125735 -29.43705771 5.79681914 -25 1 C-17.46556395 -5.96935335 -8.28396425 -5.69407743 0 0 Z " fill="#1216C8" transform="translate(184,107)"/>
<path d="M0 0 C2.44099903 1.75251212 3.96624994 3.13444433 5.4375 5.75 C5.4375 6.74 5.4375 7.73 5.4375 8.75 C2.125 8.9375 2.125 8.9375 -1.5625 8.75 C-2.036875 8.255 -2.51125 7.76 -3 7.25 C-4.47869779 5.53314046 -4.47869779 5.53314046 -6.82421875 5.45703125 C-8.02498047 5.50923828 -8.02498047 5.50923828 -9.25 5.5625 C-10.05824219 5.58957031 -10.86648437 5.61664063 -11.69921875 5.64453125 C-12.62154297 5.69673828 -12.62154297 5.69673828 -13.5625 5.75 C-13.8925 7.07 -14.2225 8.39 -14.5625 9.75 C-14.01722656 9.93175781 -13.47195312 10.11351563 -12.91015625 10.30078125 C-11.32304298 10.82981901 -9.73718929 11.36264454 -8.15234375 11.8984375 C-6.46610797 12.45288607 -4.77072334 12.9804702 -3.06640625 13.4765625 C0.22614586 14.46054359 2.85489585 15.28734376 5.5625 17.4375 C6.91782896 21.01944081 6.53631708 24.11717619 5.4375 27.75 C2.96198784 31.10962365 0.45533404 32.70186938 -3.5625 33.75 C-9.55642541 34.32228434 -14.47095629 34.3022398 -19.5625 30.75 C-21.48401551 28.83867821 -22.95953196 26.96586759 -24.5625 24.75 C-24.5625 24.09 -24.5625 23.43 -24.5625 22.75 C-19.24653909 22.39560261 -19.24653909 22.39560261 -16.5625 22.75 C-15.923125 23.41 -15.28375 24.07 -14.625 24.75 C-12.09665677 27.20172677 -11.2356057 27.02129459 -7.8125 27 C-6.39482943 26.93597617 -4.97743551 26.85884119 -3.5625 26.75 C-3.2325 25.1 -2.9025 23.45 -2.5625 21.75 C-3.50351563 21.50765625 -4.44453125 21.2653125 -5.4140625 21.015625 C-7.28191406 20.51289062 -7.28191406 20.51289062 -9.1875 20 C-10.41726562 19.67515625 -11.64703125 19.3503125 -12.9140625 19.015625 C-17.11797024 17.55731011 -21.48464891 15.90570218 -23.5625 11.75 C-23.98156739 7.97839349 -23.87450824 6.24029866 -21.8125 3 C-15.9437835 -2.8687165 -7.53187051 -2.64276158 0 0 Z " fill="#161AC8" transform="translate(218.5625,104.25)"/>
<path d="M0 0 C0 16.83 0 33.66 0 51 C-2.64 51 -5.28 51 -8 51 C-8 34.83 -8 18.66 -8 2 C-3 0 -3 0 0 0 Z " fill="#171CC8" transform="translate(92,87)"/>
<path d="M0 0 C3 2.375 3 2.375 5 5 C5 5.66 5 6.32 5 7 C-0.94 7 -6.88 7 -13 7 C-10.3169832 0.29245801 -7.04812049 -1.38494196 0 0 Z " fill="#EDEDF9" transform="translate(176,110)"/>
<path d="M0 0 C3 2.375 3 2.375 5 5 C5 5.66 5 6.32 5 7 C-0.94 7 -6.88 7 -13 7 C-12 3 -12 3 -10.4375 1.25 C-6.97481021 -0.52573835 -3.75732387 -0.81842698 0 0 Z " fill="#EDEDF9" transform="translate(64,110)"/>
</svg>
